Coordinates
version=1
nRows=14
nColumns=33
inDegrees=yes

Units are S.I. units (second, meters, Newtons, ...)
Angles are in degrees.

endheader
time	ground_thorax_rot_x	ground_thorax_rot_y	ground_thorax_rot_z	ground_thorax_tx	ground_thorax_ty	ground_thorax_tz	clav_prot_r	clav_elev_r	scapula_abduction_r	scapula_elevation_r	scapula_upward_rot_r	scapula_winging_r	shoulder_elv_r	plane_of_elev_r	axial_rot_r	elbow_flexion_r	pro_sup_r	wrist_flex_r	wrist_dev_r	clav_prot_l	clav_elev_l	scapula_abduction_l	scapula_elevation_l	scapula_upward_rot_l	scapula_winging_l	shoulder_elv_l	plane_of_elev_l	axial_rot_l	elbow_flexion_l	pro_sup_l	wrist_flex_l	wrist_dev_l
      5.17000000	    -40.97821747	     -4.54478772	      4.47741174	   -165.92586525	    889.40486694	     -7.86983290	      9.65318322	    -45.00000000	     38.57480172	    -45.00000000	    -33.88981462	   2420.76737724	  -1727.75922426	     31.32746763	     83.35547081	     17.83060255	     67.27879307	     17.01219533	      3.54183326	     15.58100762	     38.57291018	    -40.09410458	    -45.00000000	    -45.00000000	  -1713.86753327	  -1895.17824673	    138.95358886	    161.22205592	   1093.49998497	     51.22798646	      4.37921653	    -21.48187952
      5.18000000	    -40.98339640	     -4.24229701	      4.17585403	   -163.55656415	    891.58979890	     -7.88124881	      9.61473349	    -45.00000000	     39.04247157	    -45.00000000	    -32.41677455	   2420.68372019	  -1727.63161835	     31.36395376	     83.12308870	     17.97588973	     68.90490933	     16.88036661	      3.46427294	     15.70560765	     38.69964159	    -40.47903621	    -45.00000000	    -44.83951600	  -1713.61993340	  -1895.02108206	    138.77786684	    161.67082423	   1093.54692221	     51.18319360	      4.31528744	    -21.45076784
      5.19000000	    -41.00576259	     -3.91872449	      3.85896008	   -161.04563128	    893.61032305	     -7.89661156	      9.57011195	    -45.00000000	     39.42733085	    -45.00000000	    -31.18442518	   2420.65890752	  -1727.44280083	     31.47499719	     82.81894722	     18.18465473	     70.34053521	     16.66262306	      3.34260706	     15.47329038	     38.85620926	    -40.69249548	    -45.00000000	    -44.10175155	  -1713.44988699	  -1894.88628840	    138.71851086	    161.99666518	   1093.56945961	     51.09646838	      4.34618701	    -21.53214941
      5.20000000	    -41.01098539	     -3.61268026	      3.57132992	   -158.39082112	    895.44500230	     -7.91147214	      9.54032707	    -45.00000000	     39.76100714	    -45.00000000	    -30.00521406	   2420.64752289	  -1727.24827177	     31.61618172	     82.50455822	     18.34722845	     71.62204379	     16.41538002	      3.23167847	     15.20231395	     38.96621602	    -40.89048830	    -45.00000000	    -43.29759170	  -1713.30922634	  -1894.77194803	    138.67542970	    162.33249333	   1093.59947023	     50.95154101	      4.38033238	    -21.61893851
      5.21000000	    -41.00900749	     -3.42058934	      3.38257952	   -155.58976848	    897.07190159	     -7.92156515	      9.27070523	    -45.00000000	     40.24219825	    -45.00000000	    -27.94168230	   2420.70351973	  -1727.08420978	     31.31678190	     82.82692540	     18.48280596	     73.32144910	     16.44879435	      3.23066396	     16.09662327	     39.19259466	    -41.20973327	    -45.00000000	    -43.01992281	  -1713.37188704	  -1894.67033202	    138.74444791	    163.32516446	   1093.60399941	     50.59923340	      4.13670408	    -21.37367546
      5.22000000	    -41.03258066	     -3.05181174	      3.00249971	   -152.64414006	    898.46721330	     -7.92356351	      9.41054418	    -45.00000000	     40.52758054	    -45.00000000	    -27.31890691	   2420.67414063	  -1727.00499257	     31.77176086	     82.04685319	     18.60885442	     74.35633788	     15.97348081	      3.10433223	     14.95207046	     39.23564225	    -41.35428145	    -45.00000000	    -41.96639306	  -1713.07779915	  -1894.56079069	    138.49956668	    163.35653216	   1093.60328127	     50.39038362	      4.46999366	    -21.76757719
      5.23000000	    -41.03105047	     -2.85663917	      2.84140008	   -149.54870313	    899.60794861	     -7.91657530	      9.04410296	    -45.00000000	     41.00381265	    -45.00000000	    -25.21051615	   2420.77477090	  -1726.85687038	     31.40606180	     82.14902098	     18.70149204	     75.77623117	     16.08404621	      3.14239204	     16.04102069	     39.55501884	    -41.67993211	    -45.00000000	    -41.48994025	  -1713.14774961	  -1894.53567706	    138.57833374	    164.23687618	   1093.58198447	     49.85725882	      4.21037609	    -21.48576964
      5.24000000	    -41.08825781	     -2.66076353	      2.60797762	   -146.30744300	    900.46917885	     -7.90178974	      9.09819081	    -45.00000000	     41.43736863	    -45.00000000	    -24.38416386	   2420.84320430	  -1726.90256466	     31.60102330	     81.53809034	     18.70887312	     76.77210409	     15.73564892	      3.11413745	     15.39273550	     39.65348636	    -41.87200459	    -45.00000000	    -40.65712343	  -1712.83709484	  -1894.49503622	    138.30822999	    164.54205404	   1093.52232189	     49.43497389	      4.42275881	    -21.68849762
      5.25000000	    -41.06337851	     -2.33801579	      2.32053649	   -142.91406492	    901.02734516	     -7.88290580	      8.78284816	    -45.00000000	     41.74572154	    -45.00000000	    -22.39897119	   2420.90244319	  -1726.77822114	     31.48235706	     81.44647890	     18.91430893	     77.96299315	     15.67750073	      3.09262230	     15.99206269	     39.95487914	    -42.18079095	    -45.00000000	    -39.82969964	  -1712.98449283	  -1894.51502118	    138.44435375	    165.16546335	   1093.50182289	     48.69414147	      4.38518686	    -21.65341138
      5.26000000	    -41.09810502	     -2.17510307	      2.06627219	   -139.38121561	    901.26192568	     -7.86524357	      8.89239359	    -45.00000000	     42.07818563	    -45.00000000	    -21.80463562	   2421.02170973	  -1726.83638568	     31.84418451	     80.69820844	     18.90826315	     78.76241981	     15.22626290	      3.08093061	     15.05736653	     40.02890069	    -42.27346472	    -45.00000000	    -38.96875090	  -1712.68366981	  -1894.52701711	    138.09248005	    165.34664363	   1093.47458237	     48.08895975	      4.72937639	    -21.96968814
      5.27000000	    -41.08552057	     -1.89768591	      1.90628034	   -135.70346298	    901.15689997	     -7.85527084	      8.50574449	    -45.00000000	     42.47967483	    -45.00000000	    -19.70433932	   2421.09597544	  -1726.81281149	     31.51935070	     80.52971177	     19.08296666	     79.79576058	     15.33720989	      3.11531694	     15.96041297	     40.39200861	    -42.65860228	    -45.00000000	    -38.15351217	  -1712.90974313	  -1894.65450161	    138.30234900	    166.06474936	   1093.35036839	     46.97517962	      4.64943666	    -21.82450814
      5.28000000	    -41.08114289	     -1.70012126	      1.71639240	   -131.89151536	    900.70715361	     -7.85965631	      8.36677086	    -45.00000000	     42.85627243	    -45.00000000	    -18.38415761	   2421.21913256	  -1726.88101552	     31.52391775	     79.97393634	     19.16924275	     80.65604996	     15.16081702	      3.13977456	     15.85360212	     40.66044411	    -42.86214895	    -45.00000000	    -37.14464693	  -1712.87976342	  -1894.79294901	    138.23808516	    166.35294456	   1093.19719554	     45.74105313	      4.88985123	    -21.95268472
      5.29000000	    -41.02832849	     -1.46474573	      1.50950615	   -127.95030798	    899.91350508	     -7.88400787	      8.21379145	    -45.00000000	     43.24778740	    -45.00000000	    -17.03468464	   2421.33444210	  -1726.95458490	     31.56249849	     79.55058372	     19.18933215	     81.41159770	     15.04373443	      3.18771649	     15.96719748	     40.83780542	    -43.14243065	    -45.00000000	    -36.44357782	  -1712.91658170	  -1894.92405392	    138.14682861	    166.98509157	   1093.14745446	     44.17775744	      5.12409622	    -22.07929399
      5.30000000	    -41.00746447	     -1.27631146	      1.31005432	   -123.88868622	    898.78649319	     -7.93211277	      8.06069268	    -45.00000000	     43.60318973	    -45.00000000	    -15.63958870	   2421.46012109	  -1727.14461468	     31.57269014	     79.01923667	     19.26239085	     82.01509889	     14.95985053	      3.22880516	     15.95977147	     41.10237067	    -43.36284137	    -45.00000000	    -35.48461114	  -1712.98740006	  -1895.13896871	    138.12928554	    167.21416432	   1092.90320153	     42.35699420	      5.43035706	    -22.16804451
